# xmcd CD database file
#
# Track frame offsets:
#	182
#	5535
#	28440
#	39310
#	55610
#	59470
#	76490
#	91760
#	105540
#	109625
#	121732
#	135915
#
# Disc length: 2037 seconds
#
# Revision: 2
# Processed by: cddbd v1.4PL0 Copyright (c) Steve Scherf et al.
# Submitted via: CDex 1.40Release
#
DISCID=8b07f30c
DTITLE=Paulinho Pedra Azul - Vivo
DYEAR=1994
DGENRE=Meditative
TTITLE0=Manhã
TTITLE1=Jequitinhonha
TTITLE2=Jardim da Fantasia
TTITLE3=Ave Cantadeira
TTITLE4=Tarde
TTITLE5=Cine Isabel
TTITLE6=Esperando A Feijoada
TTITLE7=Olha Pra Mim
TTITLE8=Noite
TTITLE9=Inspiração
TTITLE10=Trabalhador Honesto
TTITLE11=Precisamos de Amores - Teu triste Olhar
EXTD=YEAR: 1994 ID3G: 45
EXTT0=
EXTT1=
EXTT2=
EXTT3=
EXTT4=
EXTT5=
EXTT6=
EXTT7=
EXTT8=
EXTT9=
EXTT10=
EXTT11=
PLAYORDER=
